<svg width="16" height="12" viewBox="0 0 16 12" fill="none" xmlns="http://www.w3.org/2000/svg">
<path fill-rule="evenodd" clip-rule="evenodd" d="M15.7479 6C14.8598 2.54955 11.7276 0 7.99993 0C4.27224 0 1.14004 2.54955 0.251953 6C1.14004 9.45047 4.27224 12 7.99993 12C11.7276 12 14.8598 9.45047 15.7479 6ZM1.63807 6C2.48747 8.7054 5.01621 10.6667 7.99993 10.6667C10.9836 10.6667 13.5124 8.7054 14.3617 6C13.5124 3.29457 10.9836 1.33333 7.99993 1.33333C5.01621 1.33333 2.48747 3.29457 1.63807 6ZM7.99993 8.66667C9.47267 8.66667 10.6666 7.47273 10.6666 6C10.6666 4.52724 9.47267 3.33333 7.99993 3.33333C6.52716 3.33333 5.33325 4.52724 5.33325 6C5.33325 7.47273 6.52716 8.66667 7.99993 8.66667ZM7.99993 7.33333C8.73627 7.33333 9.33327 6.7364 9.33327 6C9.33327 5.2636 8.73627 4.66667 7.99993 4.66667C7.26353 4.66667 6.66659 5.2636 6.66659 6C6.66659 6.7364 7.26353 7.33333 7.99993 7.33333Z" fill="#8F92A1"/>
</svg>
