<svg width="34" height="16" viewBox="0 0 34 16" fill="none" xmlns="http://www.w3.org/2000/svg">
<path fill-rule="evenodd" clip-rule="evenodd" d="M14.3533 4.76667C14.1471 4.64758 13.8929 4.64758 13.6867 4.76667L11.3333 5.92667C11.2939 4.85084 10.4099 3.99928 9.33333 4H3.33333C2.22876 4 1.33333 4.89543 1.33333 6V10C1.33333 11.1046 2.22876 12 3.33333 12H9.33333C10.4099 12.0007 11.2939 11.1492 11.3333 10.0733L13.7067 11.26C13.7975 11.3066 13.8979 11.3317 14 11.3333C14.1248 11.3337 14.2472 11.2991 14.3533 11.2333C14.5487 11.1113 14.6671 10.897 14.6667 10.6667V5.33333C14.6671 5.103 14.5487 4.88874 14.3533 4.76667ZM9.99999 10C9.99999 10.3682 9.70152 10.6667 9.33333 10.6667H3.33333C2.96514 10.6667 2.66666 10.3682 2.66666 10V6C2.66666 5.63181 2.96514 5.33333 3.33333 5.33333H9.33333C9.70152 5.33333 9.99999 5.63181 9.99999 6V10ZM13.3333 9.58667L11.3333 8.58667V7.41333L13.3333 6.41333V9.58667Z" fill="#8F92A1"/>
<path d="M26.2988 12H20.709V11.2207L23.6621 7.93945C24.0996 7.44336 24.4004 7.04102 24.5645 6.73242C24.7324 6.41992 24.8164 6.09766 24.8164 5.76562C24.8164 5.32031 24.6816 4.95508 24.4121 4.66992C24.1426 4.38477 23.7832 4.24219 23.334 4.24219C22.7949 4.24219 22.375 4.39648 22.0742 4.70508C21.7773 5.00977 21.6289 5.43555 21.6289 5.98242H20.5449C20.5449 5.19727 20.7969 4.5625 21.3008 4.07812C21.8086 3.59375 22.4863 3.35156 23.334 3.35156C24.127 3.35156 24.7539 3.56055 25.2148 3.97852C25.6758 4.39258 25.9062 4.94531 25.9062 5.63672C25.9062 6.47656 25.3711 7.47656 24.3008 8.63672L22.0156 11.1152H26.2988V12ZM31.0098 12H29.9199V4.77539L27.7344 5.57812V4.59375L30.8398 3.42773H31.0098V12Z" fill="#9CA3AF"/>
</svg>
