<svg width="22" height="22" viewBox="0 0 22 22" fill="none" xmlns="http://www.w3.org/2000/svg">
<path fill-rule="evenodd" clip-rule="evenodd" d="M0 11C0 4.92487 4.92487 0 11 0C17.0751 0 22 4.92487 22 11C22 17.0751 17.0751 22 11 22C4.92487 22 0 17.0751 0 11ZM3.90798 16.5417C2.71255 15.014 2 13.0902 2 11C2 6.02944 6.02944 2 11 2C15.9706 2 20 6.02944 20 11C20 13.0524 19.313 14.9443 18.1565 16.4583C16.5092 14.3531 13.9448 13 11.0645 13C8.14627 13 5.55245 14.3889 3.90798 16.5417ZM5.32767 17.9878C6.87565 19.2459 8.84977 20 11 20C13.1881 20 15.1939 19.2191 16.7538 17.9209C15.4833 16.1521 13.4084 15 11.0645 15C8.69106 15 6.59352 16.1812 5.32767 17.9878ZM11 12C13.2091 12 15 10.2091 15 8C15 5.79086 13.2091 4 11 4C8.79086 4 7 5.79086 7 8C7 10.2091 8.79086 12 11 12ZM11 10C12.1046 10 13 9.1046 13 8C13 6.89543 12.1046 6 11 6C9.8954 6 9 6.89543 9 8C9 9.1046 9.8954 10 11 10Z" fill="#8F92A1"/>
</svg>
