<svg width="22" height="18" viewBox="0 0 22 18" fill="none" xmlns="http://www.w3.org/2000/svg">
<path fill-rule="evenodd" clip-rule="evenodd" d="M3 0C1.34315 0 0 1.34315 0 3V7C0 8.6569 1.34315 10 3 10H19C20.6569 10 22 8.6569 22 7V3C22 1.34315 20.6569 0 19 0H3ZM19 2H3C2.44772 2 2 2.44772 2 3V7C2 7.5523 2.44772 8 3 8H19C19.5523 8 20 7.5523 20 7V3C20 2.44771 19.5523 2 19 2ZM6 17C6 16.4477 6.44772 16 7 16H15C15.5523 16 16 16.4477 16 17C16 17.5523 15.5523 18 15 18H7C6.44772 18 6 17.5523 6 17ZM3 13C3 12.4477 3.44772 12 4 12H18C18.5523 12 19 12.4477 19 13C19 13.5523 18.5523 14 18 14H4C3.44772 14 3 13.5523 3 13Z" fill="#8F92A1"/>
</svg>
