<svg width="20" height="20" viewBox="0 0 20 20" fill="none" xmlns="http://www.w3.org/2000/svg">
<path fill-rule="evenodd" clip-rule="evenodd" d="M10 20C15.5228 20 20 15.5228 20 10C20 4.47715 15.5228 0 10 0C4.47715 0 0 4.47715 0 10C0 15.5228 4.47715 20 10 20ZM10 18C14.4183 18 18 14.4183 18 10C18 5.58172 14.4183 2 10 2C5.58172 2 2 5.58172 2 10C2 14.4183 5.58172 18 10 18ZM7 9C7.55228 9 8 8.5523 8 8C8 7.44771 7.55228 7 7 7C6.44772 7 6 7.44771 6 8C6 8.5523 6.44772 9 7 9ZM14 11C14 13.2091 12.2091 15 10 15C7.79086 15 6 13.2091 6 11H8C8 12.1046 8.8954 13 10 13C11.1046 13 12 12.1046 12 11H14ZM13 9C13.5523 9 14 8.5523 14 8C14 7.44771 13.5523 7 13 7C12.4477 7 12 7.44771 12 8C12 8.5523 12.4477 9 13 9Z" fill="#8F92A1"/>
</svg>
