<svg width="40" height="20" viewBox="0 0 40 20" fill="none" xmlns="http://www.w3.org/2000/svg">
<path d="M30.166 11.6572H31.5469V12.6895H30.166V15H28.8945V12.6895H24.3623V11.9443L28.8193 5.04688H30.166V11.6572ZM25.7979 11.6572H28.8945V6.77637L28.7441 7.0498L25.7979 11.6572ZM34.1273 9.4082H35.0775C35.6745 9.39909 36.1439 9.24186 36.4857 8.93652C36.8275 8.63118 36.9984 8.21875 36.9984 7.69922C36.9984 6.53255 36.4174 5.94922 35.2553 5.94922C34.7084 5.94922 34.2709 6.10645 33.9428 6.4209C33.6192 6.73079 33.4574 7.14323 33.4574 7.6582H32.1928C32.1928 6.86979 32.4799 6.21582 33.0541 5.69629C33.6329 5.1722 34.3666 4.91016 35.2553 4.91016C36.1941 4.91016 36.9301 5.15853 37.4633 5.65527C37.9965 6.15202 38.2631 6.84245 38.2631 7.72656C38.2631 8.15951 38.1218 8.57878 37.8393 8.98438C37.5613 9.38997 37.1807 9.69303 36.6977 9.89355C37.2445 10.0667 37.6661 10.3538 37.9623 10.7549C38.2631 11.1559 38.4135 11.6458 38.4135 12.2246C38.4135 13.1178 38.1218 13.8265 37.5385 14.3506C36.9551 14.8747 36.1964 15.1367 35.2621 15.1367C34.3279 15.1367 33.5668 14.8838 32.9789 14.3779C32.3956 13.8721 32.1039 13.2044 32.1039 12.375H33.3754C33.3754 12.8991 33.5463 13.3184 33.8881 13.6328C34.2299 13.9473 34.6879 14.1045 35.2621 14.1045C35.8728 14.1045 36.3399 13.945 36.6635 13.626C36.987 13.307 37.1488 12.849 37.1488 12.252C37.1488 11.6732 36.9711 11.2288 36.6156 10.9189C36.2602 10.609 35.7475 10.4495 35.0775 10.4404H34.1273V9.4082Z" fill="#8F92A1"/>
<path fill-rule="evenodd" clip-rule="evenodd" d="M10.3571 6.92135L11.2999 5.97854L8 2.67871L4.70019 5.97854L5.64301 6.92135L7.33333 5.23102V13.3614H8.66667V5.23097L10.3571 6.92135ZM3.33333 9.32126V15.9879H12.6667V9.32126H10V7.98795H14V17.3213H2V7.98795H6V9.32126H3.33333Z" fill="#8F92A1"/>
</svg>
