<svg width="48" height="48" viewBox="0 0 48 48" fill="none" xmlns="http://www.w3.org/2000/svg">
<rect x="4" y="4" width="40" height="40" rx="4" fill="#0052CC" stroke="#F3F6F8" stroke-width="2"/>
<path d="M20.918 29V19.0469H24.4043C25.612 19.0469 26.528 19.2793 27.1523 19.7441C27.7767 20.2044 28.0889 20.8812 28.0889 21.7744C28.0889 22.262 27.9635 22.6927 27.7129 23.0664C27.4622 23.4355 27.1136 23.7067 26.667 23.8799C27.1774 24.0075 27.5785 24.265 27.8701 24.6523C28.1663 25.0397 28.3145 25.5137 28.3145 26.0742C28.3145 27.0312 28.0091 27.7559 27.3984 28.248C26.7878 28.7402 25.9173 28.9909 24.7871 29H20.918ZM22.9688 24.666V27.3525H24.7256C25.2087 27.3525 25.5846 27.2386 25.8535 27.0107C26.127 26.7783 26.2637 26.4593 26.2637 26.0537C26.2637 25.1423 25.792 24.6797 24.8486 24.666H22.9688ZM22.9688 23.2168H24.4863C25.5208 23.1986 26.0381 22.7861 26.0381 21.9795C26.0381 21.5283 25.9059 21.2048 25.6416 21.0088C25.3818 20.8083 24.9694 20.708 24.4043 20.708H22.9688V23.2168Z" fill="white"/>
</svg>
