<svg width="293" height="40" viewBox="0 0 293 40" fill="none" xmlns="http://www.w3.org/2000/svg">
<rect width="292" height="40" rx="16" fill="#8F92A1" fill-opacity="0.05"/>
<g clip-path="url(#clip0_933_28903)">
<g clip-path="url(#clip1_933_28903)">
<path d="M21.0268 21.7598C20.9265 22.8216 20.5346 23.651 19.851 24.248C19.1674 24.8405 18.2582 25.1367 17.1234 25.1367C16.3305 25.1367 15.6309 24.9499 15.0248 24.5762C14.4232 24.1979 13.9584 23.6624 13.6303 22.9697C13.3021 22.277 13.1312 21.4727 13.1176 20.5566V19.627C13.1176 18.6882 13.2839 17.861 13.6166 17.1455C13.9493 16.43 14.4255 15.8786 15.0453 15.4912C15.6697 15.1038 16.3897 14.9102 17.2055 14.9102C18.3038 14.9102 19.1879 15.2087 19.8578 15.8057C20.5277 16.4027 20.9174 17.2458 21.0268 18.335H19.3041C19.2221 17.6195 19.0124 17.1045 18.6752 16.79C18.3425 16.471 17.8526 16.3115 17.2055 16.3115C16.4535 16.3115 15.8747 16.5872 15.4691 17.1387C15.0681 17.6855 14.863 18.4899 14.8539 19.5518V20.4336C14.8539 21.5091 15.0453 22.3294 15.4281 22.8945C15.8155 23.4596 16.3806 23.7422 17.1234 23.7422C17.8025 23.7422 18.3129 23.5895 18.6547 23.2842C18.9965 22.9788 19.213 22.4707 19.3041 21.7598H21.0268ZM21.9068 21.2334C21.9068 20.5088 22.0504 19.8571 22.3375 19.2783C22.6246 18.695 23.0279 18.2484 23.5475 17.9385C24.067 17.624 24.664 17.4668 25.3385 17.4668C26.3365 17.4668 27.1454 17.7881 27.7652 18.4307C28.3896 19.0732 28.7268 19.9255 28.777 20.9873L28.7838 21.377C28.7838 22.1061 28.6425 22.7578 28.36 23.332C28.082 23.9062 27.6809 24.3506 27.1568 24.665C26.6373 24.9795 26.0357 25.1367 25.3521 25.1367C24.3085 25.1367 23.4723 24.7904 22.8434 24.0977C22.219 23.4004 21.9068 22.473 21.9068 21.3154V21.2334ZM23.568 21.377C23.568 22.138 23.7252 22.735 24.0396 23.168C24.3541 23.5964 24.7916 23.8105 25.3521 23.8105C25.9127 23.8105 26.3479 23.5918 26.6578 23.1543C26.9723 22.7168 27.1295 22.0765 27.1295 21.2334C27.1295 20.486 26.9677 19.8936 26.6441 19.4561C26.3251 19.0186 25.8899 18.7998 25.3385 18.7998C24.7962 18.7998 24.3655 19.0163 24.0465 19.4492C23.7275 19.8776 23.568 20.5202 23.568 21.377ZM36.4656 21.377C36.4656 22.5208 36.2059 23.4346 35.6863 24.1182C35.1668 24.7972 34.4695 25.1367 33.5945 25.1367C32.7833 25.1367 32.1339 24.8701 31.6463 24.3369V27.8438H29.9852V17.6035H31.5164L31.5848 18.3555C32.0724 17.763 32.7355 17.4668 33.574 17.4668C34.4764 17.4668 35.1827 17.804 35.6932 18.4785C36.2081 19.1484 36.4656 20.0804 36.4656 21.2744V21.377ZM34.8113 21.2334C34.8113 20.4951 34.6632 19.9095 34.367 19.4766C34.0753 19.0436 33.6561 18.8271 33.1092 18.8271C32.4301 18.8271 31.9425 19.1074 31.6463 19.668V22.9492C31.9471 23.5234 32.4393 23.8105 33.1229 23.8105C33.6515 23.8105 34.0639 23.5986 34.3602 23.1748C34.6609 22.7464 34.8113 22.0993 34.8113 21.2334ZM43.2109 18.9229H40.8115V25H39.1504V18.9229H36.7783V17.6035H43.2109V18.9229ZM48.7395 17.6035H50.3937V25H48.7395V20.0645L45.841 25H44.1867V17.6035H45.841V22.5391L48.7395 17.6035ZM58.4379 21.377C58.4379 22.5208 58.1781 23.4346 57.6586 24.1182C57.1391 24.7972 56.4418 25.1367 55.5668 25.1367C54.7556 25.1367 54.1062 24.8701 53.6186 24.3369V27.8438H51.9574V17.6035H53.4887L53.557 18.3555C54.0447 17.763 54.7077 17.4668 55.5463 17.4668C56.4486 17.4668 57.155 17.804 57.6654 18.4785C58.1804 19.1484 58.4379 20.0804 58.4379 21.2744V21.377ZM56.7836 21.2334C56.7836 20.4951 56.6355 19.9095 56.3393 19.4766C56.0476 19.0436 55.6283 18.8271 55.0814 18.8271C54.4024 18.8271 53.9148 19.1074 53.6186 19.668V22.9492C53.9193 23.5234 54.4115 23.8105 55.0951 23.8105C55.6238 23.8105 56.0362 23.5986 56.3324 23.1748C56.6332 22.7464 56.7836 22.0993 56.7836 21.2334ZM59.3385 21.2334C59.3385 20.5088 59.482 19.8571 59.7691 19.2783C60.0562 18.695 60.4596 18.2484 60.9791 17.9385C61.4986 17.624 62.0956 17.4668 62.7701 17.4668C63.7682 17.4668 64.5771 17.7881 65.1969 18.4307C65.8212 19.0732 66.1585 19.9255 66.2086 20.9873L66.2154 21.377C66.2154 22.1061 66.0742 22.7578 65.7916 23.332C65.5136 23.9062 65.1126 24.3506 64.5885 24.665C64.0689 24.9795 63.4674 25.1367 62.7838 25.1367C61.7402 25.1367 60.9039 24.7904 60.275 24.0977C59.6506 23.4004 59.3385 22.473 59.3385 21.3154V21.2334ZM60.9996 21.377C60.9996 22.138 61.1568 22.735 61.4713 23.168C61.7857 23.5964 62.2232 23.8105 62.7838 23.8105C63.3443 23.8105 63.7796 23.5918 64.0895 23.1543C64.4039 22.7168 64.5611 22.0765 64.5611 21.2334C64.5611 20.486 64.3993 19.8936 64.0758 19.4561C63.7568 19.0186 63.3215 18.7998 62.7701 18.7998C62.2278 18.7998 61.7971 19.0163 61.4781 19.4492C61.1591 19.8776 60.9996 20.5202 60.9996 21.377ZM67.5467 25V17.6035H70.5477C71.5594 17.6035 72.3296 17.7812 72.8582 18.1367C73.3868 18.4876 73.6512 18.9935 73.6512 19.6543C73.6512 19.9961 73.5441 20.3037 73.3299 20.5771C73.1202 20.846 72.8081 21.0534 72.3934 21.1992C72.8764 21.2995 73.2592 21.5023 73.5418 21.8076C73.8243 22.113 73.9656 22.473 73.9656 22.8877C73.9656 23.5758 73.7104 24.0999 73.2 24.46C72.6941 24.82 71.965 25 71.0125 25H67.5467ZM69.2078 21.8486V23.6875H71.0262C71.8784 23.6875 72.3045 23.3822 72.3045 22.7715C72.3045 22.1562 71.8715 21.8486 71.0057 21.8486H69.2078ZM69.2078 20.6592H70.575C71.5184 20.6592 71.99 20.3812 71.99 19.8252C71.99 19.2419 71.5434 18.9411 70.6502 18.9229H69.2078V20.6592ZM79.624 25C79.5511 24.8587 79.4873 24.6286 79.4326 24.3096C78.904 24.861 78.2568 25.1367 77.4912 25.1367C76.7484 25.1367 76.1423 24.9248 75.6729 24.501C75.2035 24.0771 74.9688 23.5531 74.9688 22.9287C74.9688 22.1403 75.2604 21.5365 75.8438 21.1172C76.4316 20.6934 77.2702 20.4814 78.3594 20.4814H79.3779V19.9961C79.3779 19.6133 79.2708 19.3079 79.0566 19.0801C78.8424 18.8477 78.5166 18.7314 78.0791 18.7314C77.7008 18.7314 77.391 18.8271 77.1494 19.0186C76.9079 19.2054 76.7871 19.4447 76.7871 19.7363H75.126C75.126 19.3307 75.2604 18.9525 75.5293 18.6016C75.7982 18.2461 76.1628 17.9681 76.623 17.7676C77.0879 17.5671 77.6051 17.4668 78.1748 17.4668C79.0407 17.4668 79.7311 17.6855 80.2461 18.123C80.7611 18.556 81.0254 19.1667 81.0391 19.9551V23.291C81.0391 23.9564 81.1325 24.4873 81.3193 24.8838V25H79.624ZM77.7988 23.8037C78.127 23.8037 78.4346 23.724 78.7217 23.5645C79.0133 23.4049 79.2321 23.1908 79.3779 22.9219V21.5273H78.4824C77.8672 21.5273 77.4046 21.6344 77.0947 21.8486C76.7848 22.0628 76.6299 22.3659 76.6299 22.7578C76.6299 23.0768 76.7347 23.332 76.9443 23.5234C77.1585 23.7103 77.4434 23.8037 77.7988 23.8037ZM88.2902 18.9229H85.8908V25H84.2297V18.9229H81.8576V17.6035H88.2902V18.9229ZM90.9887 19.9551H92.6156C93.2217 19.9551 93.7504 20.0599 94.2016 20.2695C94.6527 20.4792 94.9945 20.7731 95.227 21.1514C95.4639 21.5296 95.5824 21.9694 95.5824 22.4707C95.5824 23.2318 95.3135 23.8424 94.7758 24.3027C94.238 24.763 93.5225 24.9954 92.6293 25H89.3275V17.6035H90.9887V19.9551ZM90.9887 21.2881V23.6738H92.6088C93.0144 23.6738 93.3334 23.5736 93.5658 23.373C93.8028 23.168 93.9213 22.8786 93.9213 22.5049C93.9213 22.1312 93.8051 21.8372 93.5727 21.623C93.3448 21.4043 93.0349 21.2926 92.643 21.2881H90.9887ZM97.7135 23.25C98.0234 23.25 98.2626 23.3389 98.4313 23.5166C98.5999 23.6898 98.6842 23.9085 98.6842 24.1729C98.6842 24.4326 98.5999 24.6491 98.4313 24.8223C98.2626 24.9909 98.0234 25.0752 97.7135 25.0752C97.4173 25.0752 97.1826 24.9909 97.0094 24.8223C96.8362 24.6536 96.7496 24.4372 96.7496 24.1729C96.7496 23.9085 96.8339 23.6898 97.0025 23.5166C97.1712 23.3389 97.4081 23.25 97.7135 23.25ZM97.7135 17.4463C98.0234 17.4463 98.2626 17.5352 98.4313 17.7129C98.5999 17.8861 98.6842 18.1048 98.6842 18.3691C98.6842 18.6289 98.5999 18.8454 98.4313 19.0186C98.2626 19.1872 98.0234 19.2715 97.7135 19.2715C97.4173 19.2715 97.1826 19.1872 97.0094 19.0186C96.8362 18.8499 96.7496 18.6335 96.7496 18.3691C96.7496 18.1048 96.8339 17.8861 97.0025 17.7129C97.1712 17.5352 97.4081 17.4463 97.7135 17.4463Z" fill="#8F92A1"/>
<path d="M117.377 25H115.32V16.708H111.334V25H109.283V15.0469H117.377V25ZM118.544 21.2334C118.544 20.4997 118.686 19.8457 118.968 19.2715C119.251 18.6973 119.656 18.2529 120.185 17.9385C120.718 17.624 121.336 17.4668 122.038 17.4668C123.036 17.4668 123.849 17.7721 124.478 18.3828C125.111 18.9935 125.465 19.8229 125.538 20.8711L125.551 21.377C125.551 22.5117 125.234 23.4232 124.601 24.1113C123.968 24.7949 123.118 25.1367 122.051 25.1367C120.985 25.1367 120.133 24.7949 119.495 24.1113C118.861 23.4277 118.544 22.498 118.544 21.3223V21.2334ZM120.52 21.377C120.52 22.0788 120.652 22.6165 120.916 22.9902C121.181 23.3594 121.559 23.5439 122.051 23.5439C122.53 23.5439 122.903 23.3617 123.172 22.9971C123.441 22.6279 123.576 22.04 123.576 21.2334C123.576 20.5452 123.441 20.012 123.172 19.6338C122.903 19.2555 122.525 19.0664 122.038 19.0664C121.554 19.0664 121.181 19.2555 120.916 19.6338C120.652 20.0075 120.52 20.5885 120.52 21.377ZM129.957 23.4072C130.403 22.9333 130.707 22.4639 130.866 21.999C131.026 21.5342 131.114 20.8757 131.133 20.0234L131.187 17.6035H136.629V23.4072H137.695V27.2217H135.72V25H131.338V27.2217H129.321V23.4072H129.957ZM132.288 23.4072H134.66V19.2373H133.122L133.108 20.126C133.067 21.484 132.794 22.5778 132.288 23.4072ZM142.786 25C142.695 24.8223 142.629 24.6012 142.588 24.3369C142.109 24.8701 141.487 25.1367 140.722 25.1367C139.997 25.1367 139.396 24.9271 138.917 24.5078C138.443 24.0885 138.206 23.5599 138.206 22.9219C138.206 22.138 138.495 21.5365 139.074 21.1172C139.658 20.6979 140.498 20.486 141.597 20.4814H142.506V20.0576C142.506 19.7158 142.417 19.4424 142.239 19.2373C142.066 19.0322 141.79 18.9297 141.412 18.9297C141.079 18.9297 140.817 19.0094 140.626 19.1689C140.439 19.3285 140.346 19.5472 140.346 19.8252H138.37C138.37 19.3968 138.502 19.0003 138.767 18.6357C139.031 18.2712 139.405 17.9863 139.888 17.7812C140.371 17.5716 140.913 17.4668 141.515 17.4668C142.426 17.4668 143.148 17.6969 143.682 18.1572C144.219 18.613 144.488 19.2555 144.488 20.085V23.291C144.493 23.9928 144.591 24.5238 144.782 24.8838V25H142.786ZM141.152 23.626C141.444 23.626 141.713 23.5622 141.959 23.4346C142.205 23.3024 142.387 23.127 142.506 22.9082V21.6367H141.768C140.779 21.6367 140.252 21.9785 140.188 22.6621L140.182 22.7783C140.182 23.0244 140.268 23.2272 140.441 23.3867C140.615 23.5462 140.852 23.626 141.152 23.626ZM151.835 19.1895H149.463V25H147.481V19.1895H145.15V17.6035H151.835V19.1895ZM155.6 25.1367C154.515 25.1367 153.631 24.804 152.948 24.1387C152.269 23.4733 151.929 22.5869 151.929 21.4795V21.2881C151.929 20.5452 152.073 19.8822 152.36 19.2988C152.647 18.7109 153.052 18.2598 153.577 17.9453C154.105 17.6263 154.707 17.4668 155.381 17.4668C156.393 17.4668 157.188 17.7858 157.767 18.4238C158.35 19.0618 158.642 19.9665 158.642 21.1377V21.9443H153.932C153.996 22.4274 154.187 22.8148 154.506 23.1064C154.83 23.3981 155.238 23.5439 155.73 23.5439C156.491 23.5439 157.086 23.2682 157.514 22.7168L158.485 23.8037C158.189 24.223 157.788 24.5511 157.282 24.7881C156.776 25.0205 156.215 25.1367 155.6 25.1367ZM155.374 19.0664C154.982 19.0664 154.663 19.1986 154.417 19.4629C154.176 19.7272 154.021 20.1055 153.953 20.5977H156.701V20.4404C156.691 20.0029 156.573 19.6657 156.345 19.4287C156.117 19.1872 155.794 19.0664 155.374 19.0664ZM169.514 21.3701C169.514 22.5094 169.255 23.4232 168.735 24.1113C168.22 24.7949 167.523 25.1367 166.643 25.1367C165.896 25.1367 165.292 24.877 164.832 24.3574V27.8438H162.856V17.6035H164.688L164.757 18.3281C165.235 17.7539 165.86 17.4668 166.63 17.4668C167.541 17.4668 168.25 17.804 168.756 18.4785C169.262 19.153 169.514 20.0827 169.514 21.2676V21.3701ZM167.539 21.2266C167.539 20.5384 167.416 20.0075 167.17 19.6338C166.928 19.2601 166.575 19.0732 166.11 19.0732C165.49 19.0732 165.064 19.3102 164.832 19.7842V22.8125C165.073 23.3001 165.504 23.5439 166.124 23.5439C167.067 23.5439 167.539 22.7715 167.539 21.2266ZM173.949 25.1367C172.865 25.1367 171.98 24.804 171.297 24.1387C170.618 23.4733 170.278 22.5869 170.278 21.4795V21.2881C170.278 20.5452 170.422 19.8822 170.709 19.2988C170.996 18.7109 171.402 18.2598 171.926 17.9453C172.454 17.6263 173.056 17.4668 173.73 17.4668C174.742 17.4668 175.537 17.7858 176.116 18.4238C176.7 19.0618 176.991 19.9665 176.991 21.1377V21.9443H172.281C172.345 22.4274 172.536 22.8148 172.855 23.1064C173.179 23.3981 173.587 23.5439 174.079 23.5439C174.84 23.5439 175.435 23.2682 175.863 22.7168L176.834 23.8037C176.538 24.223 176.137 24.5511 175.631 24.7881C175.125 25.0205 174.564 25.1367 173.949 25.1367ZM173.724 19.0664C173.332 19.0664 173.013 19.1986 172.767 19.4629C172.525 19.7272 172.37 20.1055 172.302 20.5977H175.05V20.4404C175.041 20.0029 174.922 19.6657 174.694 19.4287C174.466 19.1872 174.143 19.0664 173.724 19.0664ZM182.957 19.2031H179.895V25H177.919V17.6035H182.957V19.2031ZM188.041 17.6035H190.017V25H188.041V20.4336L185.567 25H183.584V17.6035H185.567V22.1631L188.041 17.6035ZM194.404 23.5439C194.768 23.5439 195.065 23.4437 195.293 23.2432C195.52 23.0426 195.639 22.776 195.648 22.4434H197.501C197.496 22.9447 197.359 23.4049 197.09 23.8242C196.822 24.2389 196.452 24.5625 195.983 24.7949C195.518 25.0228 195.003 25.1367 194.438 25.1367C193.381 25.1367 192.547 24.8018 191.936 24.1318C191.325 23.4574 191.02 22.5277 191.02 21.3428V21.2129C191.02 20.0736 191.323 19.1644 191.929 18.4854C192.535 17.8063 193.367 17.4668 194.424 17.4668C195.35 17.4668 196.09 17.7311 196.646 18.2598C197.207 18.7839 197.491 19.4834 197.501 20.3584H195.648C195.639 19.9756 195.52 19.6657 195.293 19.4287C195.065 19.1872 194.764 19.0664 194.39 19.0664C193.93 19.0664 193.581 19.235 193.344 19.5723C193.112 19.9049 192.996 20.4473 192.996 21.1992V21.4043C192.996 22.1654 193.112 22.7122 193.344 23.0449C193.577 23.3776 193.93 23.5439 194.404 23.5439ZM204.567 19.1895H202.195V25H200.213V19.1895H197.882V17.6035H204.567V19.1895ZM212.023 21.3701C212.023 22.5094 211.764 23.4232 211.244 24.1113C210.729 24.7949 210.032 25.1367 209.152 25.1367C208.405 25.1367 207.801 24.877 207.341 24.3574V27.8438H205.365V17.6035H207.197L207.266 18.3281C207.744 17.7539 208.368 17.4668 209.139 17.4668C210.05 17.4668 210.759 17.804 211.265 18.4785C211.771 19.153 212.023 20.0827 212.023 21.2676V21.3701ZM210.048 21.2266C210.048 20.5384 209.925 20.0075 209.679 19.6338C209.437 19.2601 209.084 19.0732 208.619 19.0732C207.999 19.0732 207.573 19.3102 207.341 19.7842V22.8125C207.582 23.3001 208.013 23.5439 208.633 23.5439C209.576 23.5439 210.048 22.7715 210.048 21.2266ZM217.34 25C217.249 24.8223 217.183 24.6012 217.142 24.3369C216.663 24.8701 216.041 25.1367 215.276 25.1367C214.551 25.1367 213.949 24.9271 213.471 24.5078C212.997 24.0885 212.76 23.5599 212.76 22.9219C212.76 22.138 213.049 21.5365 213.628 21.1172C214.211 20.6979 215.052 20.486 216.151 20.4814H217.06V20.0576C217.06 19.7158 216.971 19.4424 216.793 19.2373C216.62 19.0322 216.344 18.9297 215.966 18.9297C215.633 18.9297 215.371 19.0094 215.18 19.1689C214.993 19.3285 214.9 19.5472 214.9 19.8252H212.924C212.924 19.3968 213.056 19.0003 213.321 18.6357C213.585 18.2712 213.959 17.9863 214.442 17.7812C214.925 17.5716 215.467 17.4668 216.069 17.4668C216.98 17.4668 217.702 17.6969 218.236 18.1572C218.773 18.613 219.042 19.2555 219.042 20.085V23.291C219.047 23.9928 219.145 24.5238 219.336 24.8838V25H217.34ZM215.706 23.626C215.998 23.626 216.267 23.5622 216.513 23.4346C216.759 23.3024 216.941 23.127 217.06 22.9082V21.6367H216.321C215.333 21.6367 214.806 21.9785 214.742 22.6621L214.736 22.7783C214.736 23.0244 214.822 23.2272 214.995 23.3867C215.168 23.5462 215.405 23.626 215.706 23.626ZM220.36 17.6035H222.335V23.4072H224.81V17.6035H226.792V23.4209H227.9L227.763 27.1943H225.924V25H220.36V17.6035ZM233.148 17.6035H235.124V25H233.148V20.4336L230.673 25H228.691V17.6035H230.673V22.1631L233.148 17.6035ZM240.891 17.6035H242.867V25H240.891V20.4336L238.417 25H236.434V17.6035H238.417V22.1631L240.891 17.6035Z" fill="#171717"/>
</g>
<path fill-rule="evenodd" clip-rule="evenodd" d="M272.291 18.7074C272.921 18.0776 272.475 17 271.584 17H264.413C263.522 17 263.076 18.0767 263.705 18.7068L267.288 22.2926C267.678 22.6833 268.311 22.6836 268.702 22.2932L272.291 18.7074Z" fill="#8F92A1" fill-opacity="0.4"/>
</g>
<defs>
<clipPath id="clip0_933_28903">
<rect width="268" height="24" fill="white" transform="translate(12 8)"/>
</clipPath>
<clipPath id="clip1_933_28903">
<rect width="232" height="24" fill="white" transform="translate(12 8)"/>
</clipPath>
</defs>
</svg>
