<svg width="16" height="16" viewBox="0 0 16 16" fill="none" xmlns="http://www.w3.org/2000/svg">
<path fill-rule="evenodd" clip-rule="evenodd" d="M11.3333 3.33301V2.66634C11.3333 1.92996 10.7364 1.33301 10 1.33301H6C5.26362 1.33301 4.66667 1.92996 4.66667 2.66634V3.33301H2.66667C2.29848 3.33301 2 3.63149 2 3.99967C2 4.36786 2.29848 4.66634 2.66667 4.66634H3.33333V11.9997C3.33333 13.1043 4.22877 13.9997 5.33333 13.9997H10.6667C11.7713 13.9997 12.6667 13.1043 12.6667 11.9997V4.66634H13.3333C13.7015 4.66634 14 4.36786 14 3.99967C14 3.63149 13.7015 3.33301 13.3333 3.33301H11.3333ZM10 2.66634H6V3.33301H10V2.66634ZM11.3333 4.66634H4.66667V11.9997C4.66667 12.3679 4.96515 12.6663 5.33333 12.6663H10.6667C11.0349 12.6663 11.3333 12.3679 11.3333 11.9997V4.66634ZM6 5.99967H7.33333V11.333H6V5.99967ZM10 5.99967H8.66667V11.333H10V5.99967Z" fill="#171717" fill-opacity="0.8"/>
</svg>
