<svg width="65" height="20" viewBox="0 0 65 20" fill="none" xmlns="http://www.w3.org/2000/svg">
<path d="M28.9834 15H27.7119V6.57129L25.1621 7.50781V6.35938L28.7852 4.99902H28.9834V15ZM38.5297 10.7549C38.5297 12.236 38.2768 13.3366 37.7709 14.0566C37.265 14.7767 36.4743 15.1367 35.3988 15.1367C34.337 15.1367 33.5508 14.7858 33.0404 14.084C32.53 13.3776 32.2657 12.3249 32.2475 10.9258V9.2373C32.2475 7.77441 32.5004 6.6875 33.0062 5.97656C33.5121 5.26562 34.3051 4.91016 35.3852 4.91016C36.4561 4.91016 37.2445 5.25423 37.7504 5.94238C38.2562 6.62598 38.516 7.68327 38.5297 9.11426V10.7549ZM37.265 9.02539C37.265 7.95443 37.1146 7.17513 36.8139 6.6875C36.5131 6.19531 36.0368 5.94922 35.3852 5.94922C34.738 5.94922 34.2663 6.19303 33.9701 6.68066C33.6739 7.16829 33.5212 7.91797 33.5121 8.92969V10.9531C33.5121 12.0286 33.6671 12.8239 33.977 13.3389C34.2914 13.8493 34.7654 14.1045 35.3988 14.1045C36.0232 14.1045 36.4857 13.863 36.7865 13.3799C37.0919 12.8968 37.2514 12.1357 37.265 11.0967V9.02539ZM44.6613 9.4082H45.6115C46.2085 9.39909 46.6779 9.24186 47.0197 8.93652C47.3615 8.63118 47.5324 8.21875 47.5324 7.69922C47.5324 6.53255 46.9514 5.94922 45.7893 5.94922C45.2424 5.94922 44.8049 6.10645 44.4768 6.4209C44.1532 6.73079 43.9914 7.14323 43.9914 7.6582H42.7268C42.7268 6.86979 43.0139 6.21582 43.5881 5.69629C44.1669 5.1722 44.9006 4.91016 45.7893 4.91016C46.7281 4.91016 47.4641 5.15853 47.9973 5.65527C48.5305 6.15202 48.7971 6.84245 48.7971 7.72656C48.7971 8.15951 48.6558 8.57878 48.3732 8.98438C48.0952 9.38997 47.7147 9.69303 47.2316 9.89355C47.7785 10.0667 48.2001 10.3538 48.4963 10.7549C48.7971 11.1559 48.9475 11.6458 48.9475 12.2246C48.9475 13.1178 48.6558 13.8265 48.0725 14.3506C47.4891 14.8747 46.7303 15.1367 45.7961 15.1367C44.8618 15.1367 44.1008 14.8838 43.5129 14.3779C42.9296 13.8721 42.6379 13.2044 42.6379 12.375H43.9094C43.9094 12.8991 44.0803 13.3184 44.4221 13.6328C44.7639 13.9473 45.2219 14.1045 45.7961 14.1045C46.4068 14.1045 46.8739 13.945 47.1975 13.626C47.521 13.307 47.6828 12.849 47.6828 12.252C47.6828 11.6732 47.5051 11.2288 47.1496 10.9189C46.7941 10.609 46.2814 10.4495 45.6115 10.4404H44.6613V9.4082ZM56.8053 15H50.2838V14.0908L53.7291 10.2627C54.2395 9.68392 54.5904 9.21452 54.7818 8.85449C54.9778 8.48991 55.0758 8.11393 55.0758 7.72656C55.0758 7.20703 54.9186 6.78092 54.6041 6.44824C54.2896 6.11556 53.8704 5.94922 53.3463 5.94922C52.7174 5.94922 52.2275 6.12923 51.8766 6.48926C51.5302 6.84473 51.357 7.34147 51.357 7.97949H50.0924C50.0924 7.06348 50.3863 6.32292 50.9742 5.75781C51.5667 5.19271 52.3574 4.91016 53.3463 4.91016C54.2714 4.91016 55.0029 5.15397 55.5406 5.6416C56.0784 6.12467 56.3473 6.76953 56.3473 7.57617C56.3473 8.55599 55.7229 9.72266 54.4742 11.0762L51.8082 13.9678H56.8053V15ZM62.5918 10.625C62.3275 10.9395 62.0107 11.1924 61.6416 11.3838C61.277 11.5752 60.876 11.6709 60.4385 11.6709C59.8643 11.6709 59.363 11.5296 58.9346 11.2471C58.5107 10.9645 58.1826 10.568 57.9502 10.0576C57.7178 9.54264 57.6016 8.97526 57.6016 8.35547C57.6016 7.6901 57.7269 7.09082 57.9775 6.55762C58.2327 6.02441 58.5928 5.61654 59.0576 5.33398C59.5225 5.05143 60.0648 4.91016 60.6846 4.91016C61.6689 4.91016 62.4437 5.2793 63.0088 6.01758C63.5785 6.7513 63.8633 7.75391 63.8633 9.02539V9.39453C63.8633 11.3314 63.4805 12.7464 62.7148 13.6396C61.9492 14.5283 60.7939 14.984 59.249 15.0068H59.0029V13.9404H59.2695C60.3132 13.9222 61.1152 13.651 61.6758 13.127C62.2363 12.5983 62.5417 11.7643 62.5918 10.625ZM60.6436 10.625C61.0674 10.625 61.457 10.4951 61.8125 10.2354C62.1725 9.97559 62.4346 9.6543 62.5986 9.27148V8.76562C62.5986 7.9362 62.4186 7.26172 62.0586 6.74219C61.6986 6.22266 61.2428 5.96289 60.6914 5.96289C60.1354 5.96289 59.6888 6.17708 59.3516 6.60547C59.0143 7.0293 58.8457 7.58984 58.8457 8.28711C58.8457 8.96615 59.0075 9.52669 59.3311 9.96875C59.6592 10.4062 60.0967 10.625 60.6436 10.625Z" fill="#8F92A1"/>
<path fill-rule="evenodd" clip-rule="evenodd" d="M15.7479 10C14.8598 6.54955 11.7276 4 7.99993 4C4.27224 4 1.14004 6.54955 0.251953 10C1.14004 13.4505 4.27224 16 7.99993 16C11.7276 16 14.8598 13.4505 15.7479 10ZM1.63807 10C2.48747 12.7054 5.01621 14.6667 7.99993 14.6667C10.9836 14.6667 13.5124 12.7054 14.3617 10C13.5124 7.29457 10.9836 5.33333 7.99993 5.33333C5.01621 5.33333 2.48747 7.29457 1.63807 10ZM7.99993 12.6667C9.47267 12.6667 10.6666 11.4727 10.6666 10C10.6666 8.52724 9.47267 7.33333 7.99993 7.33333C6.52716 7.33333 5.33325 8.52724 5.33325 10C5.33325 11.4727 6.52716 12.6667 7.99993 12.6667ZM7.99993 11.3333C8.73627 11.3333 9.33327 10.7364 9.33327 10C9.33327 9.2636 8.73627 8.66667 7.99993 8.66667C7.26353 8.66667 6.66659 9.2636 6.66659 10C6.66659 10.7364 7.26353 11.3333 7.99993 11.3333Z" fill="#8F92A1"/>
</svg>
