<svg width="16" height="16" viewBox="0 0 16 16" fill="none" xmlns="http://www.w3.org/2000/svg">
<path fill-rule="evenodd" clip-rule="evenodd" d="M14 8.0045C13.6318 8.0045 13.3333 8.30297 13.3333 8.67116V12.6712C13.3333 13.0394 13.0349 13.3378 12.6667 13.3378H3.33333C2.96514 13.3378 2.66667 13.0394 2.66667 12.6712V3.33783C2.66667 2.96964 2.96514 2.67116 3.33333 2.67116H7.33333C7.70152 2.67116 8 2.37269 8 2.0045C8 1.63631 7.70152 1.33783 7.33333 1.33783H3.33333C2.22876 1.33783 1.33333 2.23326 1.33333 3.33783V12.6712C1.33333 13.7757 2.22876 14.6712 3.33333 14.6712H12.6667C13.7712 14.6712 14.6667 13.7757 14.6667 12.6712V8.67116C14.6667 8.30297 14.3682 8.0045 14 8.0045ZM4 8.51118V11.3379C4 11.706 4.29848 12.0045 4.66667 12.0045H7.49334C7.67054 12.0055 7.84086 11.936 7.96667 11.8112L12.58 7.19118L14.4733 5.33785C14.5995 5.21267 14.6705 5.04227 14.6705 4.86452C14.6705 4.68676 14.5995 4.51636 14.4733 4.39118L11.6467 1.53118C11.5215 1.40497 11.3511 1.33398 11.1733 1.33398C10.9956 1.33398 10.8252 1.40497 10.7 1.53118L8.82 3.41785L4.19334 8.03785C4.06855 8.16366 3.99898 8.33398 4 8.51118ZM11.1733 2.94453L13.06 4.83119L12.1133 5.77786L10.2267 3.89119L11.1733 2.94453ZM5.33333 8.7845L9.28666 4.83117L11.1733 6.71783L7.22 10.6712H5.33333V8.7845Z" fill="#171717" fill-opacity="0.8"/>
</svg>
