<svg width="18" height="18" viewBox="0 0 18 18" fill="none" xmlns="http://www.w3.org/2000/svg">
<path fill-rule="evenodd" clip-rule="evenodd" d="M18 5.80258L11.0208 0.87039C9.8492 -0.290129 7.9497 -0.29013 6.77817 0.87039L0 5.60347V18H7V12.0566C7 10.9624 7.8954 10.0755 9 10.0755C10.1046 10.0755 11 10.9624 11 12.0566V18H18V5.80258ZM8.1924 2.28935L2 6.431V16H5V12.0484C5 9.86604 6.79086 8.09681 9 8.09681C11.2091 8.09681 13 9.86604 13 12.0484V16H16V6.62958L9.6066 2.28935C9.2161 1.90355 8.5829 1.90355 8.1924 2.28935Z" fill="#8F92A1"/>
</svg>
