<svg width="17" height="16" viewBox="0 0 17 16" fill="none" xmlns="http://www.w3.org/2000/svg">
<path fill-rule="evenodd" clip-rule="evenodd" d="M14.3591 8.0045C13.9909 8.0045 13.6924 8.30297 13.6924 8.67116V12.6712C13.6924 13.0394 13.394 13.3378 13.0258 13.3378H3.69243C3.32424 13.3378 3.02576 13.0394 3.02576 12.6712V3.33783C3.02576 2.96964 3.32424 2.67116 3.69243 2.67116H7.69243C8.06062 2.67116 8.3591 2.37269 8.3591 2.0045C8.3591 1.63631 8.06062 1.33783 7.69243 1.33783H3.69243C2.58786 1.33783 1.69243 2.23326 1.69243 3.33783V12.6712C1.69243 13.7757 2.58786 14.6712 3.69243 14.6712H13.0258C14.1303 14.6712 15.0258 13.7757 15.0258 12.6712V8.67116C15.0258 8.30297 14.7273 8.0045 14.3591 8.0045ZM4.3591 8.51118V11.3379C4.3591 11.706 4.65758 12.0045 5.02577 12.0045H7.85243C8.02964 12.0055 8.19995 11.936 8.32577 11.8112L12.9391 7.19118L14.8324 5.33785C14.9586 5.21267 15.0296 5.04227 15.0296 4.86452C15.0296 4.68676 14.9586 4.51636 14.8324 4.39118L12.0058 1.53118C11.8806 1.40497 11.7102 1.33398 11.5324 1.33398C11.3547 1.33398 11.1843 1.40497 11.0591 1.53118L9.1791 3.41785L4.55243 8.03785C4.42764 8.16366 4.35808 8.33398 4.3591 8.51118ZM11.5324 2.94453L13.4191 4.83119L12.4724 5.77786L10.5858 3.89119L11.5324 2.94453ZM5.69243 8.7845L9.64576 4.83117L11.5324 6.71783L7.57909 10.6712H5.69243V8.7845Z" fill="#171717" fill-opacity="0.8"/>
</svg>
